# xmcd
#
# Track frame offsets:
#	180
#	23691
#	52260
#	73585
#	90462
#	107099
#	128322
#	155567
#	170924
#	196197
#	215846
#	242247
#	264677
#
# Disc length: 3723 seconds
# Revision: 1
# Processed by: cddbd v1.5.2PL0 Copyright (c) Steve Scherf et al.
# Submitted via: dBpowerAMP V12.0
#
DISCID=bb0e890d
DTITLE=Mr. Downchild - They Call Me "Mr. Downchild"
DYEAR=1994
DGENRE=Blues
TTITLE0=Nothin' but the Blues
TTITLE1=Hard Time
TTITLE2=Automatic Blues (solo)
TTITLE3=Swingin" with Mr. Lockwood
TTITLE4=Oh Boy
TTITLE5=Mailbag Blues (solo)
TTITLE6=Blue Monday
TTITLE7=Mississippi Take Me Down (solo)
TTITLE8=Fat Tuesday
TTITLE9=Lovin' Man
TTITLE10=Worried Blues (solo)
TTITLE11=Keep it Simple
TTITLE12=Fools' Advice
EXTD=
EXTT0=
EXTT1=
EXTT2=
EXTT3=
EXTT4=
EXTT5=
EXTT6=
EXTT7=
EXTT8=
EXTT9=
EXTT10=
EXTT11=
EXTT12=
PLAYORDER=
